# xmcd CD database file
#
# Track frame offsets:
#	150
#	18707
#	32327
#	55907
#	69182
#	80475
#	96967
#	108120
#	120837
#	138400
#	155280
#	169980
#	194377
#	218830
#
# Disc length: 3231 seconds
#
# Revision: 0
# Processed by: cddbd v1.5.1PL2 Copyright (c) Steve Scherf et al.
# Submitted via: CDex 1.51
#
DISCID=b10c9d0e
DTITLE=Various Artist - The Jazz Vocal Collection - Jazz Singing 1
DYEAR=1997
DGENRE=Jazz
TTITLE0=Nina Simone/Love Me Or leave Me
TTITLE1=Cleo Laine/I Can Dream Can't I
TTITLE2=Louis Armstrong/Sweet Lorraine
TTITLE3=Pearl Bailey/Tired
TTITLE4=Bill Henderson/At Long Last Love
TTITLE5=Betty Carter/The Trolley Song
TTITLE6=Joe Williams/Singin' In The Rain
TTITLE7=Ella Johnson/Alright, Okay, You Win
TTITLE8=Jimmy Witherspoon/Sweet Slumber
TTITLE9=Ernestine Anderson/My Ship
TTITLE10=Lena Horne/A Fine Romance
TTITLE11=Clark Terry/Mumbles
TTITLE12=Abbey Lincoln/Ten Cents A dance
TTITLE13=Ella Fitzgerald and Louis Armstrong/Stompin' At The Savoy
EXTD=YEAR: 1997
EXTT0=
EXTT1=
EXTT2=
EXTT3=
EXTT4=
EXTT5=
EXTT6=
EXTT7=
EXTT8=
EXTT9=
EXTT10=
EXTT11=
EXTT12=
EXTT13=
PLAYORDER=
